<svg width="35" height="32" viewBox="0 0 35 32" fill="none" xmlns="http://www.w3.org/2000/svg">
<path d="M33.5455 9.77341H27.5972C26.7978 9.77341 26.1498 10.4214 26.1498 11.2208C26.1498 12.0202 26.7978 12.6683 27.5972 12.6683H33.5455C34.3449 12.6683 34.9929 12.0202 34.9929 11.2208C34.9929 10.4214 34.3449 9.77341 33.5455 9.77341Z" fill="#20AAA1"/>
<path d="M31.904 17.703H27.7056C26.9062 17.703 26.2582 18.351 26.2582 19.1504C26.2582 19.9498 26.9062 20.5979 27.7056 20.5979H31.904C32.7034 20.5979 33.3514 19.9498 33.3514 19.1504C33.3514 18.351 32.7034 17.703 31.904 17.703Z" fill="#20AAA1"/>
<path d="M22.1746 10.1238H6.04839C5.24899 10.1238 4.60095 10.7718 4.60095 11.5712C4.60095 12.3706 5.24899 13.0186 6.04839 13.0186H22.1746C22.974 13.0186 23.622 12.3706 23.622 11.5712C23.622 10.7718 22.974 10.1238 22.1746 10.1238Z" fill="#20AAA1"/>
<path d="M15.609 6.4176H4.66142C3.86203 6.4176 3.21399 7.06564 3.21399 7.86504C3.21399 8.66443 3.86203 9.31247 4.66142 9.31247H15.609C16.4084 9.31247 17.0564 8.66443 17.0564 7.86504C17.0564 7.06564 16.4084 6.4176 15.609 6.4176Z" fill="#20AAA1"/>
<path d="M5.07019 13.8258H1.44744C0.648039 13.8258 0 14.4738 0 15.2732C0 16.0726 0.648039 16.7207 1.44744 16.7207H5.07019C5.86959 16.7207 6.51763 16.0726 6.51763 15.2732C6.51763 14.4738 5.86959 13.8258 5.07019 13.8258Z" fill="#20AAA1"/>
<path d="M18.4559 2.70099H13.2105C12.4111 2.70099 11.7631 3.34903 11.7631 4.14842C11.7631 4.94782 12.4111 5.59586 13.2105 5.59586H18.4559C19.2553 5.59586 19.9033 4.94782 19.9033 4.14842C19.9033 3.34903 19.2553 2.70099 18.4559 2.70099Z" fill="#20AAA1"/>
<path d="M29.9894 13.8154H16.756C15.9566 13.8154 15.3086 14.4634 15.3086 15.2628C15.3086 16.0622 15.9566 16.7102 16.756 16.7102H29.9894C30.7888 16.7102 31.4369 16.0622 31.4369 15.2628C31.4369 14.4634 30.7888 13.8154 29.9894 13.8154Z" fill="#20AAA1"/>
<path d="M22.7501 28.5796C25.3363 27.9852 27.1029 26.9507 28.3125 25.3219C28.9883 24.4125 29.4304 23.3363 29.7349 21.8555H26.327C26.0454 23.0798 25.2967 24.0142 24.0975 24.6399C22.6876 25.374 21.1358 25.5409 19.6363 25.7014C19.5195 25.714 19.4027 25.7265 19.2859 25.739C18.8458 25.787 18.7666 25.4449 18.729 25.2822C18.3599 23.6951 17.4505 22.4958 16.026 21.7179C15.9134 21.6574 15.7611 21.5552 15.7278 21.3842C15.6965 21.2173 15.7945 21.0734 15.8842 20.967C16.5954 20.114 17.0042 19.0941 17.3024 18.1702H13.7673C13.3147 19.1233 12.5618 19.8137 11.4647 20.2809C9.86503 20.9608 8.19443 21.0484 6.49672 20.5395C5.21822 20.1578 4.44862 19.3632 4.20669 18.1785L0.863403 18.1723C1.2847 21.209 3.07418 23.1278 6.18179 23.8765C7.66677 24.2332 9.2164 24.2102 10.7139 24.1894L10.9475 24.1852C11.106 24.1831 11.2624 24.1789 11.4209 24.1748C11.6524 24.1685 11.886 24.1622 12.1217 24.1622C12.616 24.1622 13.1165 24.1894 13.615 24.2999C14.8852 24.5815 15.5421 25.3803 15.5672 26.6775C15.588 27.7704 15.1938 28.7736 14.3617 29.7476C13.7005 30.5214 12.8934 31.1325 12.1113 31.7227C11.9903 31.8145 11.8693 31.9062 11.7463 32.0001L16.7873 31.9938C17.5027 31.1742 18.0032 30.3712 18.3202 29.5453C18.4766 29.1386 18.752 29.0677 19.0252 29.051C20.1368 28.9863 21.4487 28.8779 22.748 28.5796H22.7501Z" fill="#BA18DD"/>
<path d="M26.1039 8.29468C28.4169 8.30511 30.296 6.48643 30.3148 4.21934C30.3336 1.90636 28.4878 0.0146847 26.1998 8.525e-05C23.8889 -0.0145142 21.9868 1.84796 21.9847 4.1234C21.9827 6.41343 23.8285 8.28425 26.1039 8.29468Z" fill="#EAB54E"/>
</svg>
