<svg width="128" height="32" viewBox="0 0 128 32" fill="none" xmlns="http://www.w3.org/2000/svg">
<g clip-path="url(#clip0_2_3330)">
<path d="M57.7327 24.8129H53.3465L46.0113 13.7068V24.8129H41.6252V6.80753H46.0113L53.3465 17.9657V6.80753H57.7327V24.8129Z" fill="black"/>
<path d="M74.3281 18.7103H64.4025C64.4713 19.5988 64.7571 20.2787 65.2618 20.75C65.7665 21.2214 66.386 21.455 67.1222 21.455C68.2172 21.455 68.9763 20.9941 69.4039 20.0701H74.0716C73.8317 21.0107 73.4 21.8575 72.7764 22.6104C72.1528 23.3634 71.3706 23.9536 70.43 24.3811C69.4894 24.8087 68.4382 25.0214 67.2744 25.0214C65.8729 25.0214 64.6236 24.7232 63.5307 24.1246C62.4358 23.526 61.5806 22.6709 60.9654 21.5593C60.3501 20.4476 60.0414 19.1483 60.0414 17.6612C60.0414 16.1741 60.3459 14.8748 60.9529 13.7631C61.5598 12.6515 62.4107 11.7964 63.5057 11.1978C64.6007 10.5992 65.8562 10.301 67.2765 10.301C68.6969 10.301 69.8919 10.5909 70.9702 11.1728C72.0485 11.7547 72.889 12.5827 73.4959 13.6609C74.1028 14.7392 74.4073 15.9948 74.4073 17.4318C74.4073 17.8427 74.3823 18.2702 74.3302 18.7145L74.3281 18.7103ZM69.917 16.2743C69.917 15.5213 69.6604 14.9228 69.1474 14.4785C68.6343 14.0343 67.994 13.8111 67.2244 13.8111C66.4548 13.8111 65.8687 14.0259 65.364 14.4535C64.8593 14.881 64.5464 15.488 64.4275 16.2743H69.917Z" fill="black"/>
<path d="M82.8688 10.9121C83.6384 10.5012 84.5185 10.2968 85.5113 10.2968C86.6918 10.2968 87.7596 10.5971 88.7169 11.1936C89.6742 11.7922 90.4313 12.6473 90.9861 13.759C91.5409 14.8706 91.8204 16.1616 91.8204 17.632C91.8204 19.1024 91.543 20.3976 90.9861 21.5176C90.4292 22.6375 89.6742 23.501 88.7169 24.1079C87.7596 24.7148 86.6918 25.0193 85.5113 25.0193C84.5018 25.0193 83.6217 24.8191 82.8688 24.4166C82.1159 24.0141 81.5256 23.4801 81.0981 22.8127V24.8129H76.712V5.83353H81.0981V12.5284C81.509 11.861 82.0992 11.3229 82.8688 10.9121ZM86.4477 15.0541C85.8408 14.4305 85.0921 14.1177 84.2036 14.1177C83.3151 14.1177 82.5914 14.4347 81.9845 15.0667C81.3776 15.6986 81.0731 16.5621 81.0731 17.657C81.0731 18.752 81.3755 19.6154 81.9845 20.2474C82.5914 20.8793 83.3318 21.1964 84.2036 21.1964C85.0754 21.1964 85.82 20.8752 86.4352 20.2349C87.0505 19.5946 87.3592 18.727 87.3592 17.632C87.3592 16.537 87.0547 15.6778 86.4477 15.0541Z" fill="black"/>
<path d="M94.0896 13.759C94.6444 12.6473 95.4014 11.7922 96.3588 11.1936C97.3161 10.5951 98.386 10.2968 99.5644 10.2968C100.574 10.2968 101.458 10.5012 102.219 10.9121C102.981 11.3229 103.567 11.861 103.976 12.5285V10.5012H108.362V24.8129H103.976V22.7856C103.548 23.453 102.954 23.9911 102.192 24.402C101.431 24.8129 100.547 25.0173 99.5373 25.0173C98.3735 25.0173 97.314 24.7149 96.3567 24.1058C95.3994 23.4989 94.6423 22.6355 94.0875 21.5155C93.5327 20.3955 93.2532 19.1003 93.2532 17.6299C93.2532 16.1596 93.5306 14.8685 94.0875 13.7569L94.0896 13.759ZM103.066 15.0667C102.459 14.4347 101.719 14.1177 100.847 14.1177C99.9753 14.1177 99.2349 14.4306 98.6279 15.0542C98.021 15.6778 97.7165 16.5371 97.7165 17.632C97.7165 18.727 98.0189 19.5946 98.6279 20.2349C99.2349 20.8773 99.9753 21.1964 100.847 21.1964C101.719 21.1964 102.459 20.8794 103.066 20.2474C103.673 19.6155 103.978 18.752 103.978 17.657C103.978 16.5621 103.673 15.6986 103.066 15.0667Z" fill="black"/>
<path d="M117.853 11.0268C118.623 10.5742 119.478 10.3469 120.419 10.3469V14.9895H119.213C118.118 14.9895 117.299 15.2252 116.75 15.6944C116.202 16.1658 115.928 16.9896 115.928 18.1701V24.8129H111.542V10.5012H115.928V12.8872C116.441 12.1009 117.082 11.4815 117.851 11.0268H117.853Z" fill="black"/>
<path d="M122.842 8.33422C122.354 7.88163 122.11 7.3206 122.11 6.65528C122.11 5.98996 122.354 5.40389 122.842 4.94922C123.33 4.49664 123.958 4.2693 124.728 4.2693C125.497 4.2693 126.1 4.49664 126.588 4.94922C127.076 5.40181 127.318 5.97119 127.318 6.65528C127.318 7.33937 127.074 7.88163 126.588 8.33422C126.1 8.7868 125.481 9.01414 124.728 9.01414C123.975 9.01414 123.33 8.7868 122.842 8.33422ZM126.907 10.5012V24.8129H122.521V10.5012H126.907Z" fill="black"/>
<path d="M33.5455 9.77332H27.5972C26.7978 9.77332 26.1498 10.4214 26.1498 11.2208C26.1498 12.0201 26.7978 12.6682 27.5972 12.6682H33.5455C34.3449 12.6682 34.9929 12.0201 34.9929 11.2208C34.9929 10.4214 34.3449 9.77332 33.5455 9.77332Z" fill="#20AAA1"/>
<path d="M31.9041 17.7029H27.7057C26.9063 17.7029 26.2582 18.351 26.2582 19.1503C26.2582 19.9497 26.9063 20.5978 27.7057 20.5978H31.9041C32.7035 20.5978 33.3515 19.9497 33.3515 19.1503C33.3515 18.351 32.7035 17.7029 31.9041 17.7029Z" fill="#20AAA1"/>
<path d="M22.1746 10.1237H6.04839C5.24899 10.1237 4.60095 10.7717 4.60095 11.5711C4.60095 12.3705 5.24899 13.0186 6.04839 13.0186H22.1746C22.974 13.0186 23.622 12.3705 23.622 11.5711C23.622 10.7717 22.974 10.1237 22.1746 10.1237Z" fill="#20AAA1"/>
<path d="M15.609 6.41751H4.66142C3.86203 6.41751 3.21399 7.06555 3.21399 7.86495C3.21399 8.66434 3.86203 9.31238 4.66142 9.31238H15.609C16.4084 9.31238 17.0564 8.66434 17.0564 7.86495C17.0564 7.06555 16.4084 6.41751 15.609 6.41751Z" fill="#20AAA1"/>
<path d="M5.07019 13.8257H1.44744C0.648039 13.8257 0 14.4738 0 15.2731C0 16.0725 0.648039 16.7206 1.44744 16.7206H5.07019C5.86959 16.7206 6.51763 16.0725 6.51763 15.2731C6.51763 14.4738 5.86959 13.8257 5.07019 13.8257Z" fill="#20AAA1"/>
<path d="M18.4558 2.7009H13.2104C12.411 2.7009 11.763 3.34894 11.763 4.14833C11.763 4.94773 12.411 5.59577 13.2104 5.59577H18.4558C19.2552 5.59577 19.9033 4.94773 19.9033 4.14833C19.9033 3.34894 19.2552 2.7009 18.4558 2.7009Z" fill="#20AAA1"/>
<path d="M29.9894 13.8153H16.756C15.9566 13.8153 15.3086 14.4633 15.3086 15.2627C15.3086 16.0621 15.9566 16.7101 16.756 16.7101H29.9894C30.7888 16.7101 31.4369 16.0621 31.4369 15.2627C31.4369 14.4633 30.7888 13.8153 29.9894 13.8153Z" fill="#20AAA1"/>
<path d="M22.7502 28.5795C25.3364 27.9851 27.1029 26.9507 28.3126 25.3218C28.9883 24.4124 29.4305 23.3362 29.735 21.8554H26.3271C26.0455 23.0797 25.2968 24.0141 24.0975 24.6398C22.6876 25.3739 21.1359 25.5408 19.6363 25.7014C19.5195 25.7139 19.4027 25.7264 19.2859 25.7389C18.8459 25.7869 18.7666 25.4448 18.7291 25.2821C18.3599 23.695 17.4506 22.4957 16.0261 21.7178C15.9135 21.6573 15.7612 21.5551 15.7278 21.3841C15.6965 21.2172 15.7946 21.0733 15.8843 20.9669C16.5955 20.1139 17.0042 19.094 17.3025 18.1701H13.7673C13.3147 19.1232 12.5618 19.8136 11.4648 20.2808C9.86509 20.9607 8.19449 21.0483 6.49678 20.5394C5.21828 20.1577 4.44868 19.3631 4.20675 18.1784L0.863464 18.1722C1.28476 21.2089 3.07424 23.1277 6.18185 23.8764C7.66683 24.2331 9.21646 24.2101 10.7139 24.1893L10.9475 24.1851C11.1061 24.183 11.2625 24.1788 11.421 24.1747C11.6525 24.1684 11.8861 24.1622 12.1218 24.1622C12.6161 24.1622 13.1166 24.1893 13.6151 24.2998C14.8852 24.5814 15.5422 25.3802 15.5672 26.6774C15.5881 27.7703 15.1939 28.7735 14.3617 29.7475C13.7006 30.5213 12.8934 31.1324 12.1113 31.7226C11.9904 31.8144 11.8694 31.9061 11.7463 32L16.7873 31.9937C17.5027 31.1741 18.0033 30.3711 18.3203 29.5452C18.4767 29.1385 18.752 29.0676 19.0252 29.0509C20.1369 28.9862 21.4487 28.8778 22.7481 28.5795H22.7502Z" fill="#BA18DD"/>
<path d="M26.1039 8.29459C28.4169 8.30502 30.296 6.48634 30.3148 4.21925C30.3336 1.90627 28.4878 0.0145932 26.1998 -6.30273e-06C23.8889 -0.0146058 21.9868 1.84787 21.9847 4.12331C21.9827 6.41334 23.8285 8.28416 26.1039 8.29459Z" fill="#EAB54E"/>
</g>
<defs>
<clipPath id="clip0_2_3330">
<rect width="127.318" height="32" fill="white"/>
</clipPath>
</defs>
</svg>
